:SAMPLES-PER-SECOND 30
:FULLY-SPECIFIED
:DEGREES
293
root  34.69224164 36.51009507 -14.71266108 8.389424324 -5.109388828 3.864527941
lowerback  -8.621299744 -0.9555200338 -1.660209775
upperback  -3.858740091 -0.5820720196 -4.086569786
thorax  0.8145130277 -0.09337279946 -3.344449997
lowerneck  -7.758210182 -13.32409954 -9.344479561
upperneck  12.45349979 -18.27499771 10.79230022
head  6.933990002 -8.446379662 3.155019999
lclavicle  0 -4.497500157e-015 -2.743230041e-014
lhumerus  -48.53969955 30.29610062 61.67739868
lradius  0.007069340441 -6.507048965e-006 30.23220062
lwrist  4.824992743e-007 -3.790274832e-007 -28.69599915
lhand  -4.385901518e-031 -36.37929916 -10.68710041
lfingers  90 7.125020027 -90
lthumb  94.57459891 -25.540752 100.5131587
rclavicle  0 -4.497500157e-015 -2.743230041e-014
rhumerus  -39.5257988 -35.29240036 -11.9987011
rradius  -5.16745672e-007 2.214343908e-008 113.1800003
rwrist  -2.867388866e-005 0.0111028729 173.7660065
rhand  -1.770005545e-031 4.060510159 -5.005809784
rfingers  -90 -7.125020027 -90
rthumb  -83.87027243 -10.69916081 -59.9519694
rfemur  -11.89650631 15.83879852 13.02788448
rtibia  -1.254479647 -1.116281629 20.81766129
rfoot  0.3739665151 -22.13054276 -35.68121719
rtoes  3.863158045 19.63836137 -101.3608614
lfemur  -6.435217857 -17.21088409 -21.33216667
ltibia  3.905156612 -1.192908525 12.80513668
lfoot  0.8354014754 -22.12349129 37.45264435
ltoes  -8.568016355 -18.14006871 -115.8233677
294
root  34.6939147 36.50940122 -14.71691432 8.365594864 -5.12942791 3.845983505
lowerback  -8.6020298 -0.9705309272 -1.646119595
upperback  -3.889559984 -0.6046220064 -4.068039894
thorax  0.7709890008 -0.1044000015 -3.334759951
lowerneck  -7.809169769 -13.24479961 -9.27834034
upperneck  12.57929993 -18.16530228 10.70269871
head  6.956580162 -8.391160011 3.127520084
lclavicle  0 -4.497500157e-015 -2.743230041e-014
lhumerus  -48.64709854 30.33340073 61.61579895
lradius  0.007069340441 -6.507048965e-006 30.23480034
lwrist  4.824992743e-007 -3.790274832e-007 -28.69070053
lhand  -0 -36.34569931 -10.66759968
lfingers  90 7.125020027 -90
lthumb  94.55495844 -25.52278053 100.4755595
rclavicle  0 -4.497500157e-015 -2.743230041e-014
rhumerus  -40.58209991 -35.00630188 -12.23949909
rradius  -5.16745672e-007 2.214343908e-008 113.9039993
rwrist  -2.867388866e-005 0.0111028729 173.530014
rhand  -0 3.965660095 -4.691810131
rfingers  -90 -7.125020027 -90
rthumb  -83.73572903 -10.96697402 -60.01514695
rfemur  -11.88169765 15.88892174 13.04336357
rtibia  -1.248939872 -1.091033459 20.81679916
rfoot  0.3687446713 -22.10203362 -35.71749878
rtoes  3.873909414 19.63632385 -101.3928533
lfemur  -6.44735384 -17.19441795 -21.29862976
ltibia  3.863433838 -1.193343043 12.85938549
lfoot  0.8310080171 -22.14574432 37.46092987
ltoes  -8.568534786 -18.13983029 -115.8250329
295
root  34.69503808 36.50856619 -14.72123965 8.336808205 -5.136964321 3.833420515
lowerback  -8.607839584 -0.9959549904 -1.639329672
upperback  -3.913170099 -0.639391005 -4.04460001
thorax  0.7483490109 -0.1214689985 -3.317300081
lowerneck  -7.901889801 -13.16679955 -9.273579597
upperneck  12.77970028 -18.06680107 10.71420002
head  7.027560234 -8.330340385 3.133749962
lclavicle  0 -4.497500157e-015 -2.743230041e-014
lhumerus  -48.75669861 30.4144001 61.53919983
lradius  0.007069340441 -6.507048965e-006 30.2439785
lwrist  4.824992743e-007 -3.790274832e-007 -28.71419907
lhand  -0 -36.36439896 -10.68900013
lfingers  90 7.125020027 -90
lthumb  94.56799749 -25.54317948 100.497352
rclavicle  0 -4.497500157e-015 -2.743230041e-014
rhumerus  -41.56719971 -34.74920273 -12.53349972
rradius  -5.16745672e-007 2.214343908e-008 114.4260025
rwrist  -2.867388866e-005 0.0111028729 173.3890381
rhand  -1.770405193e-031 4.238800049 -4.954619884
rfingers  -90 -7.125020027 -90
rthumb  -83.79667712 -10.75118695 -59.77201385
rfemur  -11.89194679 15.93616104 13.06815052
rtibia  -1.25575757 -1.028668523 20.86786079
rfoot  0.3535611331 -22.00415802 -35.75113297
rtoes  3.868747281 19.63730288 -101.3774924
lfemur  -6.428306103 -17.16646957 -21.28089333
ltibia  3.846221924 -1.166735768 12.86779308
lfoot  0.8447805047 -22.21176529 37.50689697
ltoes  -8.552365118 -18.14725805 -115.7731069
296
root  34.69647085 36.50727159 -14.7274558 8.294527054 -5.149450302 3.824072599
lowerback  -8.608860016 -1.038990021 -1.67092979
upperback  -3.953880072 -0.6951479912 -3.999170065
thorax  0.705343008 -0.1481849998 -3.256979942
lowerneck  -7.984660149 -13.06309986 -9.250789642
upperneck  12.97550011 -17.92500114 10.65209961
head  7.081960201 -8.25549984 3.121579885
lclavicle  0 -4.497500157e-015 -2.743230041e-014
lhumerus  -48.87760162 30.44339943 61.47190094
lradius  0.007069340441 -6.507048965e-006 30.22579765
lwrist  4.824992743e-007 -3.790274832e-007 -28.65990067
lhand  -4.387430788e-031 -36.40639877 -10.70549965
lfingers  90 7.125020027 -90
lthumb  94.59101029 -25.55793571 100.5437188
rclavicle  0 -4.497500157e-015 -2.743230041e-014
rhumerus  -42.5658989 -34.42269897 -12.90039921
rradius  -5.16745672e-007 2.214343908e-008 114.9929962
rwrist  -2.867388866e-005 0.0111028729 173.1530457
rhand  -1.770594492e-031 4.320660114 -4.783820152
rfingers  -90 -7.125020027 -90
rthumb  -83.68702182 -10.90218098 -59.67516333
rfemur  -11.84349728 15.9442625 13.07560444
rtibia  -1.244383216 -1.05036211 20.85130119
rfoot  0.3653039038 -22.07434082 -35.71715546
rtoes  3.877184092 19.63570209 -101.4025981
lfemur  -6.419559956 -17.07090569 -21.26820374
ltibia  3.812631607 -1.14144814 12.90980911
lfoot  0.8392946124 -22.3018837 37.45702744
ltoes  -8.582397224 -18.13344845 -115.8695659
297
root  34.69812288 36.50635246 -14.73141017 8.259127617 -5.163582325 3.814628601
lowerback  -8.608380318 -1.069450021 -1.655669928
upperback  -3.983920097 -0.7392609715 -3.955820084
thorax  0.6724269986 -0.1703770012 -3.224240065
lowerneck  -8.068369865 -12.96459961 -9.225319862
upperneck  13.14659977 -17.77820206 10.50979996
head  7.12003994 -8.18723011 3.085289955
lclavicle  0 -4.497500157e-015 -2.743230041e-014
lhumerus  -48.99459839 30.47730064 61.45370102
lradius  0.007069340441 -6.507048965e-006 30.22360039
lwrist  4.824992743e-007 -3.790274832e-007 -28.61129951
lhand  -0 -36.44319916 -10.77050018
lfingers  90 7.125020027 -90
lthumb  94.6215456 -25.62064896 100.5888757
rclavicle  0 -4.497500157e-015 -2.743230041e-014
rhumerus  -43.52830124 -34.04180145 -13.30469608
rradius  -5.16745672e-007 2.214343908e-008 115.5279999
rwrist  -2.867388866e-005 0.0111028729 173.0150604
rhand  -1.772387816e-031 5.02989006 -5.258230209
rfingers  -90 -7.125020027 -90
rthumb  -83.74212933 -10.52569683 -59.024498
rfemur  -11.80208778 15.95023632 13.08495045
rtibia  -1.234569311 -1.044772506 20.83584023
rfoot  0.3537410498 -22.08436584 -35.75704575
rtoes  3.889286348 19.63339947 -101.4386146
lfemur  -6.415733814 -17.11544037 -21.25899124
ltibia  3.775615215 -1.187614679 12.96674156
lfoot  0.8138165474 -22.23028183 37.44226837
ltoes  -8.578511328 -18.13523869 -115.857081
298
root  34.70066101 36.50608213 -14.73538256 8.234730721 -5.190144539 3.78712821
lowerback  -8.680709839 -1.086809993 -1.637130499
upperback  -3.960429907 -0.763053 -3.932919979
thorax  0.735567987 -0.1833840013 -3.214230061
lowerneck  -8.213829994 -12.87619972 -9.223250389
upperneck  13.34010029 -17.65060234 10.4350996
head  7.187049866 -8.12032032 3.066169977
lclavicle  0 -4.497500157e-015 -2.743230041e-014
lhumerus  -49.02090073 30.49909973 61.49969864
lradius  0.007069340441 -6.507048965e-006 30.25880051
lwrist  4.824992743e-007 -3.790274832e-007 -28.53389931
lhand  -4.396359462e-031 -36.56389999 -10.77190018
lfingers  90 7.125020027 -90
lthumb  94.67855814 -25.61779664 100.7181474
rclavicle  0 -4.497500157e-015 -2.743230041e-014
rhumerus  -44.38310242 -33.81240463 -13.83859825
rradius  -5.16745672e-007 2.214343908e-008 116.0070038
rwrist  -2.867388866e-005 0.0111028729 173.1460419
rhand  -0 4.728330135 -5.285369873
rfingers  -90 -7.125020027 -90
rthumb  -83.83681797 -10.48820629 -59.32298153
rfemur  -11.76867867 15.94471455 13.09856224
rtibia  -1.210715175 -1.047968864 20.8054142
rfoot  0.3778104484 -22.12084007 -35.7011795
rtoes  3.900425752 19.63127342 -101.4717692
lfemur  -6.452737331 -17.14045715 -21.20830154
ltibia  3.703884602 -1.195838332 13.06441212
lfoot  0.8116176128 -22.25663376 37.48740387
ltoes  -8.55589799 -18.14563667 -115.7844504
299
root  34.70467695 36.50651166 -14.73961627 8.226893425 -5.210868835 3.762377501
lowerback  -8.711190224 -1.113999963 -1.626070142
upperback  -3.949970007 -0.8006039858 -3.914750099
thorax  0.7616099715 -0.2028809935 -3.205539942
lowerneck  -8.346579552 -12.78600025 -9.183589935
upperneck  13.55560017 -17.52489853 10.35200024
head  7.255209923 -8.052089691 3.039649963
lclavicle  0 -4.497500157e-015 -2.743230041e-014
lhumerus  -49.04700089 30.46769905 61.53590012
lradius  0.007069340441 -6.507048965e-006 30.27230072
lwrist  4.824992743e-007 -3.790274832e-007 -28.45420074
lhand  -4.406895947e-031 -36.74819946 -10.74100018
lfingers  90 7.125020027 -90
lthumb  94.7587523 -25.58097149 100.9126007
rclavicle  0 -4.497500157e-015 -2.743230041e-014
rhumerus  -45.56949615 -33.60639572 -14.32700253
rradius  -5.16745672e-007 2.214343908e-008 116.5189972
rwrist  -2.867388866e-005 0.0111028729 172.9010773
rhand  -1.77122276e-031 4.581779957 -4.886229992
rfingers  -90 -7.125020027 -90
rthumb  -83.6692091 -10.82508568 -59.42855957
rfemur  -11.7688942 15.9755621 13.10640621
rtibia  -1.196797132 -1.02659595 20.79540253
rfoot  0.3733513057 -22.09520531 -35.73149872
rtoes  3.900746133 19.63121218 -101.4727228
lfemur  -6.54293251 -17.11285591 -21.13855362
ltibia  3.611042976 -1.175443053 13.20338917
lfoot  0.8129701018 -22.36807823 37.48384857
ltoes  -8.541473009 -18.15225164 -115.7381405
